<svg width="14" height="16" viewBox="0 0 14 16" fill="none" xmlns="http://www.w3.org/2000/svg">
<path d="M1.82841 8.48527L7.48526 2.82842C8.65683 1.65684 10.5563 1.65684 11.7279 2.82842C12.8995 3.99999 12.8995 5.89948 11.7279 7.07106L5.01039 13.7886C4.4246 14.3744 3.47485 14.3744 2.88907 13.7886C2.30328 13.2028 2.30328 12.253 2.88907 11.6673L8.89948 5.65684C9.09474 5.46158 9.09474 5.145 8.89948 4.94974C8.70421 4.75448 8.38763 4.75448 8.19237 4.94974L2.18196 10.9601C1.20565 11.9365 1.20565 13.5194 2.18196 14.4957C3.15827 15.472 4.74118 15.472 5.71749 14.4957L12.435 7.77816C13.9971 6.21607 13.9971 3.68341 12.435 2.12131C10.8729 0.559213 8.34025 0.559213 6.77815 2.12131L1.1213 7.77816C0.926038 7.97343 0.926038 8.29001 1.1213 8.48527C1.31656 8.68053 1.63315 8.68053 1.82841 8.48527Z" fill="#1C3687"/>
</svg>
